<svg xmlns="http://www.w3.org/2000/svg" viewBox="0 0 200 200" fill="none" stroke="currentColor" stroke-width="2.3" stroke-linecap="round" stroke-linejoin="round" role="img" aria-label="Three bamboo culms with node rings and leaves">
  <!-- culm A -->
  <path d="M 42,192 C 43,150 46,86 50,24"/>
  <path d="M 54,192 C 55,150 58,86 62,24"/>
  <line x1="43" y1="168" x2="55" y2="168"/>
  <line x1="43" y1="163" x2="55" y2="163" opacity="0.7"/>
  <line x1="44" y1="140" x2="56" y2="140"/>
  <line x1="45" y1="135" x2="57" y2="135" opacity="0.7"/>
  <line x1="46" y1="112" x2="58" y2="112"/>
  <line x1="46" y1="107" x2="58" y2="107" opacity="0.7"/>
  <line x1="47" y1="84" x2="59" y2="84"/>
  <line x1="47" y1="79" x2="59" y2="79" opacity="0.7"/>
  <line x1="48" y1="56" x2="60" y2="56"/>
  <line x1="49" y1="51" x2="61" y2="51" opacity="0.7"/>
  <line x1="50" y1="30" x2="62" y2="30"/>

  <!-- culm B -->
  <path d="M 92,192 C 93,140 96,72 98,16"/>
  <path d="M 108,192 C 109,140 112,72 114,16"/>
  <line x1="92" y1="176" x2="108" y2="176"/>
  <line x1="93" y1="170" x2="109" y2="170" opacity="0.7"/>
  <line x1="94" y1="146" x2="110" y2="146"/>
  <line x1="94" y1="140" x2="110" y2="140" opacity="0.7"/>
  <line x1="95" y1="116" x2="111" y2="116"/>
  <line x1="95" y1="110" x2="111" y2="110" opacity="0.7"/>
  <line x1="96" y1="86" x2="112" y2="86"/>
  <line x1="96" y1="80" x2="112" y2="80" opacity="0.7"/>
  <line x1="97" y1="56" x2="113" y2="56"/>
  <line x1="97" y1="50" x2="113" y2="50" opacity="0.7"/>
  <line x1="98" y1="28" x2="114" y2="28"/>

  <!-- culm C -->
  <path d="M 146,192 C 145,152 142,96 140,50"/>
  <path d="M 156,192 C 155,152 152,96 150,50"/>
  <line x1="145" y1="172" x2="155" y2="172"/>
  <line x1="145" y1="167" x2="155" y2="167" opacity="0.7"/>
  <line x1="144" y1="144" x2="154" y2="144"/>
  <line x1="144" y1="139" x2="154" y2="139" opacity="0.7"/>
  <line x1="143" y1="116" x2="153" y2="116"/>
  <line x1="143" y1="111" x2="153" y2="111" opacity="0.7"/>
  <line x1="142" y1="88" x2="152" y2="88"/>
  <line x1="142" y1="83" x2="152" y2="83" opacity="0.7"/>
  <line x1="140" y1="52" x2="150" y2="52"/>

  <!-- leaves -->
  <path d="M 60,54 Q 88,49 104,26 Q 76,31 60,54 Z"/>
  <path d="M 61,53 L 102,28" opacity="0.45"/>
  <path d="M 60,74 Q 82,90 108,84 Q 86,68 60,74 Z"/>
  <path d="M 62,75 L 106,83" opacity="0.45"/>
  <path d="M 48,86 Q 40,59 16,44 Q 24,71 48,86 Z"/>
  <path d="M 47,84 L 19,47" opacity="0.45"/>
  <path d="M 114,66 Q 142,60 158,36 Q 130,42 114,66 Z"/>
  <path d="M 116,65 L 156,39" opacity="0.45"/>
  <path d="M 115,100 Q 142,108 166,94 Q 139,86 115,100 Z"/>
  <path d="M 117,99 L 164,94" opacity="0.45"/>
  <path d="M 142,78 Q 140,50 120,30 Q 122,58 142,78 Z"/>
  <path d="M 141,76 L 122,33" opacity="0.45"/>
  <path d="M 152,66 Q 176,53 186,28 Q 162,41 152,66 Z"/>
  <path d="M 154,64 L 184,31" opacity="0.45"/>
  <path d="M 50,30 Q 62,14 84,12 Q 66,24 50,30 Z"/>
  <path d="M 98,28 Q 84,14 62,10 Q 80,20 98,28 Z"/>
</svg>
