<svg xmlns="http://www.w3.org/2000/svg" viewBox="0 0 200 200" fill="none" stroke="currentColor" stroke-width="1.75" stroke-linecap="round" stroke-linejoin="round" role="img" aria-label="Enso circle brush stroke">
  <path d="M 136.2,42.1 L 138.1,42.4 L 139.7,43.2 L 141.3,44.1 L 142.8,45 L 144.3,46 L 145.8,47.1 L 147.2,48.2 L 148.5,49.4 L 149.9,50.7 L 151.1,51.9 L 152.4,53.3 L 153.6,54.6 L 154.7,56 L 155.8,57.4 L 156.9,58.9 L 157.9,60.4 L 158.9,61.9 L 159.8,63.5 L 160.7,65.1 L 161.5,66.7 L 162.3,68.3 L 163.1,69.9 L 163.8,71.6 L 164.5,73.2 L 165.1,74.9 L 165.7,76.6 L 166.3,78.3 L 166.8,80 L 167.3,81.8 L 167.7,83.5 L 168.1,85.3 L 168.5,87 L 168.8,88.8 L 169.1,90.6 L 169.3,92.4 L 169.5,94.1 L 169.7,95.9 L 169.8,97.7 L 169.9,99.5 L 169.9,101.3 L 169.9,103.1 L 169.9,104.9 L 169.8,106.7 L 169.6,108.5 L 169.4,110.3 L 169.1,112.1 L 168.8,113.9 L 168.5,115.7 L 168.1,117.5 L 167.6,119.2 L 167.1,121 L 166.6,122.7 L 165.9,124.4 L 165.3,126.1 L 164.5,127.7 L 163.8,129.4 L 162.9,131 L 162.1,132.6 L 161.2,134.1 L 160.2,135.6 L 159.2,137.1 L 158.1,138.6 L 157,140 L 155.9,141.4 L 154.7,142.8 L 153.5,144.1 L 152.3,145.4 L 151,146.7 L 149.7,147.9 L 148.4,149.1 L 147,150.2 L 145.6,151.3 L 144.2,152.4 L 142.8,153.5 L 141.4,154.5 L 139.9,155.5 L 138.5,156.5 L 137,157.4 L 135.5,158.3 L 133.9,159.2 L 132.4,160.1 L 130.9,160.9 L 129.3,161.7 L 127.7,162.5 L 126.1,163.3 L 124.5,164 L 122.9,164.7 L 121.3,165.4 L 119.6,166.1 L 117.9,166.7 L 116.2,167.3 L 114.5,167.8 L 112.8,168.4 L 111.1,168.8 L 109.3,169.3 L 107.5,169.7 L 105.8,170 L 104,170.4 L 102.2,170.6 L 100.3,170.8 L 98.5,171 L 96.7,171.1 L 94.8,171.2 L 93,171.2 L 91.1,171.1 L 89.3,171 L 87.4,170.8 L 85.6,170.5 L 83.8,170.2 L 82,169.8 L 80.1,169.3 L 78.4,168.8 L 76.6,168.2 L 74.8,167.6 L 73.1,166.9 L 71.4,166.1 L 69.8,165.3 L 68.1,164.4 L 66.5,163.5 L 65,162.5 L 63.4,161.5 L 61.9,160.4 L 60.5,159.3 L 59,158.1 L 57.7,156.9 L 56.3,155.6 L 55,154.3 L 53.8,153 L 52.5,151.7 L 51.4,150.3 L 50.2,148.9 L 49.1,147.4 L 48.1,146 L 47,144.5 L 46,143 L 45.1,141.5 L 44.2,140 L 43.3,138.4 L 42.5,136.9 L 41.7,135.3 L 40.9,133.7 L 40.1,132.1 L 39.4,130.5 L 38.8,128.9 L 38.2,127.3 L 37.6,125.6 L 37,124 L 36.5,122.3 L 36,120.7 L 35.6,119 L 35.2,117.3 L 34.8,115.6 L 34.5,113.9 L 34.2,112.2 L 34,110.5 L 33.8,108.8 L 33.7,107.1 L 33.6,105.3 L 33.5,103.6 L 33.6,101.9 L 33.6,100.2 L 33.8,98.5 L 34.3,96.8 L 34.4,95.1 L 34.6,93.4 L 34.8,91.7 L 35,90 L 35.3,88.4 L 35.6,86.7 L 35.9,85.1 L 36.4,83.4 L 36.8,81.8 L 37.3,80.2 L 37.9,78.5 L 38.4,77 L 39.1,75.4 L 39.7,73.8 L 40.5,72.3 L 41.2,70.8 L 42,69.3 L 42.8,67.8 L 43.7,66.3 L 44.6,64.9 L 45.5,63.5 L 46.5,62.1 L 47.5,60.7 L 48.5,59.4 L 49.6,58.1 L 50.6,56.8 L 51.8,55.5 L 52.9,54.3 L 54.1,53.1 L 55.3,51.9 L 56.5,50.7 L 57.8,49.6 L 59.1,48.5 L 60.4,47.4 L 61.7,46.3 L 63.1,45.3 L 64.5,44.3 L 65.9,43.4 L 67.3,42.4 L 68.8,41.5 L 70.2,40.7 L 71.7,39.8 L 73.3,39 L 74.8,38.3 L 76.4,37.6 L 78,36.9 L 79.6,36.2 L 81.2,35.6 L 82.8,35 L 84.5,34.5 L 86.1,34 L 87.8,33.6 L 89.5,33.2 L 91.2,32.8 L 93,32.5 L 94.7,32.3 L 96.4,32.1 L 96.5,32.8 L 94.8,33.1 L 93.1,33.4 L 91.4,33.7 L 89.7,34.1 L 88,34.6 L 86.4,35.1 L 84.7,35.6 L 83.1,36.2 L 81.5,36.8 L 80,37.4 L 78.4,38.1 L 76.9,38.8 L 75.3,39.6 L 73.8,40.3 L 72.4,41.1 L 70.9,42 L 69.5,42.8 L 68,43.7 L 66.6,44.6 L 65.2,45.5 L 63.9,46.5 L 62.5,47.4 L 61.2,48.4 L 59.9,49.5 L 58.6,50.5 L 57.3,51.6 L 56,52.7 L 54.8,53.8 L 53.6,55 L 52.4,56.1 L 51.3,57.4 L 50.2,58.6 L 49.1,59.9 L 48,61.2 L 47,62.5 L 46,63.8 L 45.1,65.2 L 44.2,66.6 L 43.3,68.1 L 42.5,69.5 L 41.7,71 L 41,72.5 L 40.3,74.1 L 39.6,75.6 L 39,77.2 L 38.5,78.8 L 38,80.4 L 37.5,82 L 37.1,83.6 L 36.8,85.2 L 36.5,86.9 L 36.2,88.5 L 36,90.2 L 35.8,91.9 L 35.7,93.5 L 35.6,95.2 L 35.6,96.9 L 36.1,98.5 L 36.3,100.2 L 36.5,101.8 L 36.7,103.4 L 37,105.1 L 37.3,106.7 L 37.6,108.3 L 37.9,109.9 L 38.3,111.4 L 38.6,113 L 39,114.6 L 39.5,116.1 L 39.9,117.7 L 40.4,119.2 L 40.9,120.8 L 41.5,122.3 L 42,123.8 L 42.6,125.3 L 43.2,126.8 L 43.9,128.3 L 44.6,129.8 L 45.3,131.2 L 46,132.7 L 46.8,134.1 L 47.6,135.5 L 48.4,136.9 L 49.3,138.3 L 50.2,139.7 L 51.2,141 L 52.2,142.3 L 53.2,143.6 L 54.3,144.9 L 55.4,146.2 L 56.5,147.4 L 57.7,148.5 L 58.9,149.7 L 60.1,150.8 L 61.4,151.8 L 62.7,152.9 L 64.1,153.8 L 65.5,154.8 L 66.9,155.7 L 68.3,156.5 L 69.8,157.3 L 71.3,158 L 72.8,158.7 L 74.4,159.3 L 75.9,159.9 L 77.5,160.5 L 79.1,160.9 L 80.7,161.4 L 82.3,161.7 L 83.9,162.1 L 85.6,162.3 L 87.2,162.6 L 88.9,162.7 L 90.5,162.8 L 92.1,162.9 L 93.8,162.9 L 95.4,162.9 L 97.1,162.8 L 98.7,162.7 L 100.3,162.5 L 101.9,162.3 L 103.5,162.1 L 105.1,161.8 L 106.7,161.5 L 108.2,161.1 L 109.8,160.7 L 111.3,160.3 L 112.8,159.9 L 114.3,159.4 L 115.8,158.8 L 117.3,158.3 L 118.7,157.7 L 120.2,157.1 L 121.6,156.4 L 123,155.8 L 124.4,155.1 L 125.8,154.4 L 127.2,153.6 L 128.5,152.8 L 129.8,152.1 L 131.1,151.2 L 132.4,150.4 L 133.7,149.5 L 135,148.6 L 136.2,147.7 L 137.4,146.8 L 138.6,145.8 L 139.8,144.8 L 141,143.8 L 142.1,142.8 L 143.3,141.7 L 144.4,140.6 L 145.5,139.5 L 146.5,138.3 L 147.5,137.2 L 148.6,136 L 149.5,134.8 L 150.5,133.5 L 151.4,132.3 L 152.3,131 L 153.2,129.7 L 154,128.3 L 154.8,127 L 155.6,125.6 L 156.3,124.2 L 157,122.8 L 157.6,121.3 L 158.3,119.9 L 158.8,118.4 L 159.4,116.9 L 159.9,115.4 L 160.3,113.8 L 160.7,112.3 L 161.1,110.7 L 161.4,109.1 L 161.6,107.6 L 161.9,106 L 162,104.4 L 162.2,102.8 L 162.3,101.2 L 162.3,99.6 L 162.3,98 L 162.3,96.4 L 162.2,94.8 L 162.1,93.2 L 161.9,91.6 L 161.7,90 L 161.4,88.4 L 161.1,86.8 L 160.8,85.2 L 160.5,83.6 L 160.1,82.1 L 159.6,80.5 L 159.2,78.9 L 158.7,77.4 L 158.1,75.9 L 157.5,74.4 L 156.9,72.8 L 156.3,71.3 L 155.6,69.8 L 154.9,68.4 L 154.2,66.9 L 153.4,65.4 L 152.6,64 L 151.8,62.6 L 150.9,61.2 L 150,59.8 L 149.1,58.4 L 148.1,57 L 147.1,55.7 L 146.1,54.4 L 145,53.1 L 143.9,51.8 L 142.8,50.6 L 141.6,49.3 L 140.4,48.1 L 139.2,46.9 L 137.9,45.7 L 136.7,44.5 L 135.6,43 Z" fill="currentColor" stroke="none"/>
</svg>
