<svg xmlns="http://www.w3.org/2000/svg" viewBox="0 0 200 200" fill="none" stroke="currentColor" stroke-width="2.2" stroke-linecap="round" stroke-linejoin="round" role="img" aria-label="Woven linen twill pattern">
  <line x1="0" y1="7" x2="20" y2="7"/>
  <line x1="0" y1="13" x2="20" y2="13"/>
  <line x1="20" y1="7" x2="40" y2="7"/>
  <line x1="20" y1="13" x2="40" y2="13"/>
  <line x1="47" y1="0" x2="47" y2="20" opacity="0.78"/>
  <line x1="53" y1="0" x2="53" y2="20" opacity="0.78"/>
  <line x1="67" y1="0" x2="67" y2="20" opacity="0.78"/>
  <line x1="73" y1="0" x2="73" y2="20" opacity="0.78"/>
  <line x1="80" y1="7" x2="100" y2="7"/>
  <line x1="80" y1="13" x2="100" y2="13"/>
  <line x1="100" y1="7" x2="120" y2="7"/>
  <line x1="100" y1="13" x2="120" y2="13"/>
  <line x1="127" y1="0" x2="127" y2="20" opacity="0.78"/>
  <line x1="133" y1="0" x2="133" y2="20" opacity="0.78"/>
  <line x1="147" y1="0" x2="147" y2="20" opacity="0.78"/>
  <line x1="153" y1="0" x2="153" y2="20" opacity="0.78"/>
  <line x1="160" y1="7" x2="180" y2="7"/>
  <line x1="160" y1="13" x2="180" y2="13"/>
  <line x1="180" y1="7" x2="200" y2="7"/>
  <line x1="180" y1="13" x2="200" y2="13"/>
  <line x1="0" y1="27" x2="20" y2="27"/>
  <line x1="0" y1="33" x2="20" y2="33"/>
  <line x1="27" y1="20" x2="27" y2="40" opacity="0.78"/>
  <line x1="33" y1="20" x2="33" y2="40" opacity="0.78"/>
  <line x1="47" y1="20" x2="47" y2="40" opacity="0.78"/>
  <line x1="53" y1="20" x2="53" y2="40" opacity="0.78"/>
  <line x1="60" y1="27" x2="80" y2="27"/>
  <line x1="60" y1="33" x2="80" y2="33"/>
  <line x1="80" y1="27" x2="100" y2="27"/>
  <line x1="80" y1="33" x2="100" y2="33"/>
  <line x1="107" y1="20" x2="107" y2="40" opacity="0.78"/>
  <line x1="113" y1="20" x2="113" y2="40" opacity="0.78"/>
  <line x1="127" y1="20" x2="127" y2="40" opacity="0.78"/>
  <line x1="133" y1="20" x2="133" y2="40" opacity="0.78"/>
  <line x1="140" y1="27" x2="160" y2="27"/>
  <line x1="140" y1="33" x2="160" y2="33"/>
  <line x1="160" y1="27" x2="180" y2="27"/>
  <line x1="160" y1="33" x2="180" y2="33"/>
  <line x1="187" y1="20" x2="187" y2="40" opacity="0.78"/>
  <line x1="193" y1="20" x2="193" y2="40" opacity="0.78"/>
  <line x1="7" y1="40" x2="7" y2="60" opacity="0.78"/>
  <line x1="13" y1="40" x2="13" y2="60" opacity="0.78"/>
  <line x1="27" y1="40" x2="27" y2="60" opacity="0.78"/>
  <line x1="33" y1="40" x2="33" y2="60" opacity="0.78"/>
  <line x1="40" y1="47" x2="60" y2="47"/>
  <line x1="40" y1="53" x2="60" y2="53"/>
  <line x1="60" y1="47" x2="80" y2="47"/>
  <line x1="60" y1="53" x2="80" y2="53"/>
  <line x1="87" y1="40" x2="87" y2="60" opacity="0.78"/>
  <line x1="93" y1="40" x2="93" y2="60" opacity="0.78"/>
  <line x1="107" y1="40" x2="107" y2="60" opacity="0.78"/>
  <line x1="113" y1="40" x2="113" y2="60" opacity="0.78"/>
  <line x1="120" y1="47" x2="140" y2="47"/>
  <line x1="120" y1="53" x2="140" y2="53"/>
  <line x1="140" y1="47" x2="160" y2="47"/>
  <line x1="140" y1="53" x2="160" y2="53"/>
  <line x1="167" y1="40" x2="167" y2="60" opacity="0.78"/>
  <line x1="173" y1="40" x2="173" y2="60" opacity="0.78"/>
  <line x1="187" y1="40" x2="187" y2="60" opacity="0.78"/>
  <line x1="193" y1="40" x2="193" y2="60" opacity="0.78"/>
  <line x1="7" y1="60" x2="7" y2="80" opacity="0.78"/>
  <line x1="13" y1="60" x2="13" y2="80" opacity="0.78"/>
  <line x1="20" y1="67" x2="40" y2="67"/>
  <line x1="20" y1="73" x2="40" y2="73"/>
  <line x1="40" y1="67" x2="60" y2="67"/>
  <line x1="40" y1="73" x2="60" y2="73"/>
  <line x1="67" y1="60" x2="67" y2="80" opacity="0.78"/>
  <line x1="73" y1="60" x2="73" y2="80" opacity="0.78"/>
  <line x1="87" y1="60" x2="87" y2="80" opacity="0.78"/>
  <line x1="93" y1="60" x2="93" y2="80" opacity="0.78"/>
  <line x1="100" y1="67" x2="120" y2="67"/>
  <line x1="100" y1="73" x2="120" y2="73"/>
  <line x1="120" y1="67" x2="140" y2="67"/>
  <line x1="120" y1="73" x2="140" y2="73"/>
  <line x1="147" y1="60" x2="147" y2="80" opacity="0.78"/>
  <line x1="153" y1="60" x2="153" y2="80" opacity="0.78"/>
  <line x1="167" y1="60" x2="167" y2="80" opacity="0.78"/>
  <line x1="173" y1="60" x2="173" y2="80" opacity="0.78"/>
  <line x1="180" y1="67" x2="200" y2="67"/>
  <line x1="180" y1="73" x2="200" y2="73"/>
  <line x1="0" y1="87" x2="20" y2="87"/>
  <line x1="0" y1="93" x2="20" y2="93"/>
  <line x1="20" y1="87" x2="40" y2="87"/>
  <line x1="20" y1="93" x2="40" y2="93"/>
  <line x1="47" y1="80" x2="47" y2="100" opacity="0.78"/>
  <line x1="53" y1="80" x2="53" y2="100" opacity="0.78"/>
  <line x1="67" y1="80" x2="67" y2="100" opacity="0.78"/>
  <line x1="73" y1="80" x2="73" y2="100" opacity="0.78"/>
  <line x1="80" y1="87" x2="100" y2="87"/>
  <line x1="80" y1="93" x2="100" y2="93"/>
  <line x1="100" y1="87" x2="120" y2="87"/>
  <line x1="100" y1="93" x2="120" y2="93"/>
  <line x1="127" y1="80" x2="127" y2="100" opacity="0.78"/>
  <line x1="133" y1="80" x2="133" y2="100" opacity="0.78"/>
  <line x1="147" y1="80" x2="147" y2="100" opacity="0.78"/>
  <line x1="153" y1="80" x2="153" y2="100" opacity="0.78"/>
  <line x1="160" y1="87" x2="180" y2="87"/>
  <line x1="160" y1="93" x2="180" y2="93"/>
  <line x1="180" y1="87" x2="200" y2="87"/>
  <line x1="180" y1="93" x2="200" y2="93"/>
  <line x1="0" y1="107" x2="20" y2="107"/>
  <line x1="0" y1="113" x2="20" y2="113"/>
  <line x1="27" y1="100" x2="27" y2="120" opacity="0.78"/>
  <line x1="33" y1="100" x2="33" y2="120" opacity="0.78"/>
  <line x1="47" y1="100" x2="47" y2="120" opacity="0.78"/>
  <line x1="53" y1="100" x2="53" y2="120" opacity="0.78"/>
  <line x1="60" y1="107" x2="80" y2="107"/>
  <line x1="60" y1="113" x2="80" y2="113"/>
  <line x1="80" y1="107" x2="100" y2="107"/>
  <line x1="80" y1="113" x2="100" y2="113"/>
  <line x1="107" y1="100" x2="107" y2="120" opacity="0.78"/>
  <line x1="113" y1="100" x2="113" y2="120" opacity="0.78"/>
  <line x1="127" y1="100" x2="127" y2="120" opacity="0.78"/>
  <line x1="133" y1="100" x2="133" y2="120" opacity="0.78"/>
  <line x1="140" y1="107" x2="160" y2="107"/>
  <line x1="140" y1="113" x2="160" y2="113"/>
  <line x1="160" y1="107" x2="180" y2="107"/>
  <line x1="160" y1="113" x2="180" y2="113"/>
  <line x1="187" y1="100" x2="187" y2="120" opacity="0.78"/>
  <line x1="193" y1="100" x2="193" y2="120" opacity="0.78"/>
  <line x1="7" y1="120" x2="7" y2="140" opacity="0.78"/>
  <line x1="13" y1="120" x2="13" y2="140" opacity="0.78"/>
  <line x1="27" y1="120" x2="27" y2="140" opacity="0.78"/>
  <line x1="33" y1="120" x2="33" y2="140" opacity="0.78"/>
  <line x1="40" y1="127" x2="60" y2="127"/>
  <line x1="40" y1="133" x2="60" y2="133"/>
  <line x1="60" y1="127" x2="80" y2="127"/>
  <line x1="60" y1="133" x2="80" y2="133"/>
  <line x1="87" y1="120" x2="87" y2="140" opacity="0.78"/>
  <line x1="93" y1="120" x2="93" y2="140" opacity="0.78"/>
  <line x1="107" y1="120" x2="107" y2="140" opacity="0.78"/>
  <line x1="113" y1="120" x2="113" y2="140" opacity="0.78"/>
  <line x1="120" y1="127" x2="140" y2="127"/>
  <line x1="120" y1="133" x2="140" y2="133"/>
  <line x1="140" y1="127" x2="160" y2="127"/>
  <line x1="140" y1="133" x2="160" y2="133"/>
  <line x1="167" y1="120" x2="167" y2="140" opacity="0.78"/>
  <line x1="173" y1="120" x2="173" y2="140" opacity="0.78"/>
  <line x1="187" y1="120" x2="187" y2="140" opacity="0.78"/>
  <line x1="193" y1="120" x2="193" y2="140" opacity="0.78"/>
  <line x1="7" y1="140" x2="7" y2="160" opacity="0.78"/>
  <line x1="13" y1="140" x2="13" y2="160" opacity="0.78"/>
  <line x1="20" y1="147" x2="40" y2="147"/>
  <line x1="20" y1="153" x2="40" y2="153"/>
  <line x1="40" y1="147" x2="60" y2="147"/>
  <line x1="40" y1="153" x2="60" y2="153"/>
  <line x1="67" y1="140" x2="67" y2="160" opacity="0.78"/>
  <line x1="73" y1="140" x2="73" y2="160" opacity="0.78"/>
  <line x1="87" y1="140" x2="87" y2="160" opacity="0.78"/>
  <line x1="93" y1="140" x2="93" y2="160" opacity="0.78"/>
  <line x1="100" y1="147" x2="120" y2="147"/>
  <line x1="100" y1="153" x2="120" y2="153"/>
  <line x1="120" y1="147" x2="140" y2="147"/>
  <line x1="120" y1="153" x2="140" y2="153"/>
  <line x1="147" y1="140" x2="147" y2="160" opacity="0.78"/>
  <line x1="153" y1="140" x2="153" y2="160" opacity="0.78"/>
  <line x1="167" y1="140" x2="167" y2="160" opacity="0.78"/>
  <line x1="173" y1="140" x2="173" y2="160" opacity="0.78"/>
  <line x1="180" y1="147" x2="200" y2="147"/>
  <line x1="180" y1="153" x2="200" y2="153"/>
  <line x1="0" y1="167" x2="20" y2="167"/>
  <line x1="0" y1="173" x2="20" y2="173"/>
  <line x1="20" y1="167" x2="40" y2="167"/>
  <line x1="20" y1="173" x2="40" y2="173"/>
  <line x1="47" y1="160" x2="47" y2="180" opacity="0.78"/>
  <line x1="53" y1="160" x2="53" y2="180" opacity="0.78"/>
  <line x1="67" y1="160" x2="67" y2="180" opacity="0.78"/>
  <line x1="73" y1="160" x2="73" y2="180" opacity="0.78"/>
  <line x1="80" y1="167" x2="100" y2="167"/>
  <line x1="80" y1="173" x2="100" y2="173"/>
  <line x1="100" y1="167" x2="120" y2="167"/>
  <line x1="100" y1="173" x2="120" y2="173"/>
  <line x1="127" y1="160" x2="127" y2="180" opacity="0.78"/>
  <line x1="133" y1="160" x2="133" y2="180" opacity="0.78"/>
  <line x1="147" y1="160" x2="147" y2="180" opacity="0.78"/>
  <line x1="153" y1="160" x2="153" y2="180" opacity="0.78"/>
  <line x1="160" y1="167" x2="180" y2="167"/>
  <line x1="160" y1="173" x2="180" y2="173"/>
  <line x1="180" y1="167" x2="200" y2="167"/>
  <line x1="180" y1="173" x2="200" y2="173"/>
  <line x1="0" y1="187" x2="20" y2="187"/>
  <line x1="0" y1="193" x2="20" y2="193"/>
  <line x1="27" y1="180" x2="27" y2="200" opacity="0.78"/>
  <line x1="33" y1="180" x2="33" y2="200" opacity="0.78"/>
  <line x1="47" y1="180" x2="47" y2="200" opacity="0.78"/>
  <line x1="53" y1="180" x2="53" y2="200" opacity="0.78"/>
  <line x1="60" y1="187" x2="80" y2="187"/>
  <line x1="60" y1="193" x2="80" y2="193"/>
  <line x1="80" y1="187" x2="100" y2="187"/>
  <line x1="80" y1="193" x2="100" y2="193"/>
  <line x1="107" y1="180" x2="107" y2="200" opacity="0.78"/>
  <line x1="113" y1="180" x2="113" y2="200" opacity="0.78"/>
  <line x1="127" y1="180" x2="127" y2="200" opacity="0.78"/>
  <line x1="133" y1="180" x2="133" y2="200" opacity="0.78"/>
  <line x1="140" y1="187" x2="160" y2="187"/>
  <line x1="140" y1="193" x2="160" y2="193"/>
  <line x1="160" y1="187" x2="180" y2="187"/>
  <line x1="160" y1="193" x2="180" y2="193"/>
  <line x1="187" y1="180" x2="187" y2="200" opacity="0.78"/>
  <line x1="193" y1="180" x2="193" y2="200" opacity="0.78"/>
</svg>
